<svg width="16" height="16" viewBox="0 0 16 16" fill="none" xmlns="http://www.w3.org/2000/svg">
    <path
        d="M8 0C5.87692 0 4.15585 1.72109 4.15585 3.84415C4.15585 4.01629 4.01629 4.15585 3.84415 4.15585C1.72109 4.15585 0 5.87692 0 8C0 10.1231 1.72109 11.8442 3.84415 11.8442C4.01629 11.8442 4.15585 11.9837 4.15585 12.1558C4.15585 14.2789 5.87692 16 8 16C10.1231 16 11.8442 14.2789 11.8442 12.1558C11.8442 11.9837 11.9837 11.8442 12.1558 11.8442C14.2789 11.8442 16 10.1231 16 8C16 5.87692 14.2789 4.15585 12.1558 4.15585C11.9837 4.15585 11.8442 4.01629 11.8442 3.84415C11.8442 1.72109 10.1231 0 8 0Z"
        fill="#5CF4F3" />
</svg>
    