<svg width="28" height="28" viewBox="0 0 28 28" fill="none" xmlns="http://www.w3.org/2000/svg">
    <path d="M28 14C28 21.7467 21.7467 28 14 28C6.25333 28 0 21.7467 0 14C0 6.25333 6.25333 0 14 0C21.7467 0 28 6.25333 28 14Z" fill="#FFD236"/>
    <path d="M21.9331 16.8C21.9331 16.4267 21.6997 15.96 21.0931 15.82C19.4597 15.4934 17.0797 15.2134 13.9997 15.2134C10.9197 15.2134 8.53974 15.54 6.90641 15.82C6.29974 15.96 6.06641 16.4267 6.06641 16.8C6.06641 20.2067 8.67974 23.6134 13.9997 23.6134C19.3197 23.6134 21.9331 20.2067 21.9331 16.8Z" fill="#373F51"/>
    <path d="M12.3676 11.6199C11.481 9.23994 10.1743 8.02661 8.86764 8.02661C7.56097 8.02661 6.25431 9.23994 5.36764 11.6199C5.27431 11.8533 5.74097 12.2733 5.97431 12.0399C6.81431 11.1533 7.84097 10.7799 8.86764 10.7799C9.89431 10.7799 10.921 11.1533 11.761 12.0399C12.041 12.2733 12.461 11.8533 12.3676 11.6199Z" fill="#373F51"/>
    <path d="M22.5864 11.6199C21.6997 9.23994 20.3931 8.02661 19.0864 8.02661C17.7797 8.02661 16.4731 9.23994 15.5864 11.6199C15.4931 11.8533 15.9597 12.2733 16.1931 12.0399C17.0331 11.1533 18.0597 10.7799 19.0864 10.7799C20.1597 10.7799 21.1397 11.1533 21.9797 12.0399C22.2131 12.2733 22.6797 11.8533 22.5864 11.6199Z" fill="#373F51"/>
    <path d="M19.9265 16.9401C18.8999 16.7534 16.7532 16.4734 13.9999 16.4734C11.2465 16.4734 9.09988 16.7534 8.07322 16.9401C7.46655 17.0334 7.41988 17.2667 7.46655 17.6401C7.51322 17.8267 7.51322 18.1067 7.60655 18.3867C7.65322 18.6667 7.74655 18.8067 8.21322 18.7601C9.09988 18.6667 18.9465 18.6667 19.8332 18.7601C20.2999 18.8067 20.3465 18.6667 20.4399 18.3867C20.4865 18.1067 20.5332 17.8734 20.5799 17.6401C20.5799 17.2667 20.5332 17.0334 19.9265 16.9401Z" fill="white"/>
    <path d="M28 14C28 21.7467 21.7467 28 14 28C6.25333 28 0 21.7467 0 14C0 6.25333 6.25333 0 14 0C21.7467 0 28 6.25333 28 14Z" fill="#FFD236"/>
    <path d="M21.9331 16.8C21.9331 16.4267 21.6997 15.96 21.0931 15.82C19.4597 15.4934 17.0797 15.2134 13.9997 15.2134C10.9197 15.2134 8.53974 15.54 6.90641 15.82C6.29974 15.96 6.06641 16.4267 6.06641 16.8C6.06641 20.2067 8.67974 23.6134 13.9997 23.6134C19.3197 23.6134 21.9331 20.2067 21.9331 16.8Z" fill="#373F51"/>
    <path d="M12.3676 11.6199C11.481 9.23994 10.1743 8.02661 8.86764 8.02661C7.56097 8.02661 6.25431 9.23994 5.36764 11.6199C5.27431 11.8533 5.74097 12.2733 5.97431 12.0399C6.81431 11.1533 7.84097 10.7799 8.86764 10.7799C9.89431 10.7799 10.921 11.1533 11.761 12.0399C12.041 12.2733 12.461 11.8533 12.3676 11.6199Z" fill="#373F51"/>
    <path d="M22.5864 11.6199C21.6997 9.23994 20.3931 8.02661 19.0864 8.02661C17.7797 8.02661 16.4731 9.23994 15.5864 11.6199C15.4931 11.8533 15.9597 12.2733 16.1931 12.0399C17.0331 11.1533 18.0597 10.7799 19.0864 10.7799C20.1597 10.7799 21.1397 11.1533 21.9797 12.0399C22.2131 12.2733 22.6797 11.8533 22.5864 11.6199Z" fill="#373F51"/>
    <path d="M19.9265 16.9401C18.8999 16.7534 16.7532 16.4734 13.9999 16.4734C11.2465 16.4734 9.09988 16.7534 8.07322 16.9401C7.46655 17.0334 7.41988 17.2667 7.46655 17.6401C7.51322 17.8267 7.51322 18.1067 7.60655 18.3867C7.65322 18.6667 7.74655 18.7601 8.21322 18.7601H19.8332C20.2999 18.7601 20.3465 18.6667 20.4399 18.3867C20.4865 18.1067 20.5332 17.8734 20.5799 17.6401C20.5799 17.2667 20.5332 17.0334 19.9265 16.9401Z" fill="white"/>
    </svg>
    