<svg width="28" height="28" viewBox="0 0 28 28" fill="none" xmlns="http://www.w3.org/2000/svg">
    <path d="M14 28C21.732 28 28 21.732 28 14C28 6.26801 21.732 0 14 0C6.26801 0 0 6.26801 0 14C0 21.732 6.26801 28 14 28Z" fill="#FFD236"/>
    <path d="M8.63411 14.2799C9.92278 14.2799 10.9674 13.2353 10.9674 11.9466C10.9674 10.658 9.92278 9.61328 8.63411 9.61328C7.34545 9.61328 6.30078 10.658 6.30078 11.9466C6.30078 13.2353 7.34545 14.2799 8.63411 14.2799Z" fill="#373F51"/>
    <path d="M19.3665 14.2799C20.6552 14.2799 21.6999 13.2353 21.6999 11.9466C21.6999 10.658 20.6552 9.61328 19.3665 9.61328C18.0779 9.61328 17.0332 10.658 17.0332 11.9466C17.0332 13.2353 18.0779 14.2799 19.3665 14.2799Z" fill="#373F51"/>
    <path d="M17.2209 21.4665H10.7809C10.0809 21.4665 10.0809 19.5999 10.7809 19.5999H17.1742C17.9209 19.5999 17.9209 21.4665 17.2209 21.4665Z" fill="#373F51"/>
    </svg>
    