<svg width="28" height="28" viewBox="0 0 28 28" fill="none" xmlns="http://www.w3.org/2000/svg">
    <path d="M14 28C21.732 28 28 21.732 28 14C28 6.26801 21.732 0 14 0C6.26801 0 0 6.26801 0 14C0 21.732 6.26801 28 14 28Z" fill="#FFD236"/>
    <path d="M9.61253 7.55996C8.11919 8.81996 6.11253 9.37996 4.15253 9.00662C3.87253 8.95996 3.63919 9.93996 3.96586 10.0333C6.20586 10.4533 8.53919 9.79996 10.2659 8.35329C10.4992 8.11996 9.79919 7.37329 9.61253 7.55996ZM23.8459 8.95996C21.8859 9.28662 19.8792 8.77329 18.3859 7.51329C18.1992 7.32662 17.4525 8.07329 17.7325 8.30662C19.4592 9.79996 21.7925 10.4066 24.0325 9.98662C24.3592 9.89329 24.1259 8.91329 23.8459 8.95996Z" fill="#373F51"/>
    <path d="M20.8125 18.8533C20.5792 18.5733 20.1125 18.48 19.7859 18.7133L17.8259 20.02C17.4992 20.2533 16.9859 20.2067 16.7059 19.9733L14.5592 18.1533C14.2792 17.92 13.8125 17.92 13.4859 18.1533L11.3392 19.9733C11.0592 20.2067 10.5459 20.2533 10.2192 20.02L8.21253 18.7133C7.88587 18.48 7.4192 18.5733 7.18587 18.8533L5.13253 21.28C4.8992 21.56 4.94587 21.6533 5.27253 21.4667L7.04587 20.4867C7.37253 20.3 7.88587 20.3467 8.16587 20.6267L10.3125 22.7267C10.5925 23.0067 11.0592 23.0067 11.3859 22.7733L13.4859 21.1867C13.8125 20.9533 14.2792 20.9533 14.6059 21.1867L16.6592 22.7733C16.9859 23.0067 17.4525 22.96 17.7325 22.7267L19.8792 20.6267C20.1592 20.3467 20.6725 20.3 20.9992 20.4867L22.7725 21.4667C23.0992 21.6533 23.1925 21.56 22.9125 21.28L20.8125 18.8533ZM23.1925 12.18C23.4725 12.32 23.3325 12.6467 23.0992 12.6933C21.8392 12.88 20.5325 13.1133 19.2259 13.8133C21.0925 14.14 22.5859 15.0733 23.4259 16.0533C23.6125 16.2867 23.3792 16.5667 23.1925 16.52C20.9525 15.7267 18.6659 15.26 15.8192 15.5867C15.5859 15.5867 15.3992 15.4933 15.4459 15.26C16.1925 11.8533 20.5325 10.5933 23.1925 12.18ZM4.80587 12.18C4.52587 12.32 4.66587 12.6467 4.8992 12.6933C6.1592 12.88 7.46587 13.1133 8.77253 13.8133C6.90587 14.14 5.41253 15.0733 4.57253 16.0533C4.38587 16.2867 4.6192 16.5667 4.80587 16.52C7.04587 15.7267 9.33253 15.26 12.1792 15.5867C12.4125 15.5867 12.5992 15.4933 12.5525 15.26C11.8059 11.8533 7.46587 10.5933 4.80587 12.18Z" fill="#373F51"/>
    </svg>
    