<svg width="60" height="60" viewBox="0 0 60 60" fill="none" xmlns="http://www.w3.org/2000/svg">
<circle cx="30" cy="30" r="30" fill="#0967FF"/>
<circle cx="30" cy="27" r="16" fill="#FFFDFD"/>
<path d="M46 27.0001C46 18.1634 38.8366 11 30.0001 11C21.1634 11 14 18.1634 14 27.0001C14 34.9862 19.851 41.6054 27.5 42.8057V31.6251H23.4375V27.0001H27.5V23.475C27.5 19.465 29.8887 17.25 33.5434 17.25C35.294 17.25 37.125 17.5625 37.125 17.5625V21.5H35.1075C33.1199 21.5 32.5 22.7334 32.5 23.9987V27.0001H36.9375L36.2282 31.6251H32.5V42.8057C40.1491 41.6054 46 34.9862 46 27.0001Z" fill="#0967FF"/>
</svg>
