<svg width="287" height="159" viewBox="0 0 287 159" fill="none" xmlns="http://www.w3.org/2000/svg">
<path d="M244.238 104.291C204.304 93.6822 166.03 127.214 146.856 151.36C142.816 156.448 136.356 159.139 129.97 157.947C114.88 155.129 90.702 151.039 66.6655 148.224C28.1415 143.713 16.9413 111.346 3.53453 72.6023L3.37246 72.134C-10.1066 33.1831 26.8143 3.29051 52.6004 10.5372C78.3864 17.7839 132.889 20.5014 156.917 6.46097C180.945 -7.57947 228.414 3.74347 260.061 16.8781C282.963 26.3835 286.171 50.6897 284.695 64.8515C284.412 67.5644 284.583 70.3082 285.21 72.9625C289.258 90.081 285.854 115.347 244.238 104.291Z" fill="#DFEFFC"/>
<path d="M243.32 149.52C246.31 149.52 249.3 148.77 251.98 147.28L250.97 145.46C246.14 148.15 240.18 148.09 235.41 145.31L190.12 118.91L189.07 120.71L234.36 147.11C237.11 148.71 240.22 149.52 243.32 149.52Z" fill="#373F51"/>
<path d="M255.29 145.41C257.11 143.83 259.81 139.65 256.92 135.14L255.17 136.26C257.81 140.4 254.09 143.7 253.93 143.84L255.29 145.41Z" fill="#373F51"/>
<path d="M189.57 72.94V63.91L187.33 64.34C184.78 59.3 180.06 54.54 173.17 50.57C161.89 44.05 148.34 33.04 133.56 33.25C119.68 33.44 104.54 44.45 93.94 50.57C87.05 54.55 82.33 59.31 79.78 64.36L77.55 63.92L77.53 73.44C77.53 81.72 83 90 93.94 96.32C115.82 108.95 151.29 108.95 173.17 96.32C184.33 89.88 189.78 81.39 189.56 72.95L189.57 72.94ZM162.97 90.41C154.85 95.1 143.55 89.06 132.91 89.06C122.27 89.06 112.29 95.1 104.17 90.41C87.93 81.04 87.93 65.84 104.17 56.46C120.41 47.09 146.73 47.09 162.97 56.46C179.21 65.83 179.21 81.03 162.97 90.41Z" fill="#373F51"/>
<path d="M93.43 97.21C82.52 90.91 76.5 82.47 76.5 73.43L76.52 62.64L79.23 63.18C82.02 58.09 86.91 53.43 93.43 49.66C95.27 48.6 97.24 47.39 99.32 46.12C109.34 39.99 121.8 32.36 133.56 32.2C133.7 32.2 133.84 32.2 133.98 32.2C145.9 32.2 156.88 39.15 166.58 45.28C169.07 46.86 171.43 48.35 173.7 49.66C180.22 53.42 185.11 58.08 187.9 63.17L190.62 62.65V73.15C190.75 82.29 184.75 90.83 173.7 97.21C162.64 103.6 148.1 106.79 133.57 106.79C119.04 106.79 104.5 103.6 93.43 97.21ZM188.54 65.17L186.77 65.51L186.42 64.81C183.89 59.82 179.14 55.2 172.68 51.47C170.36 50.13 167.99 48.63 165.48 47.04C156.02 41.06 145.31 34.28 133.99 34.28C133.86 34.28 133.73 34.28 133.6 34.28C122.42 34.44 110.22 41.9 100.42 47.9C98.32 49.18 96.34 50.4 94.49 51.47C88.02 55.2 83.27 59.82 80.74 64.82L80.38 65.52L78.61 65.17V73.43C78.6 81.68 84.24 89.48 94.48 95.4C116.04 107.84 151.11 107.84 172.67 95.4C183.13 89.36 188.76 81.39 188.54 72.96L188.52 72.12H188.54V65.16V65.17ZM144.57 91.71C140.72 90.92 136.74 90.11 132.91 90.11C129.08 90.11 125.21 90.94 121.51 91.75C115.11 93.14 109.07 94.46 103.64 91.32C95.45 86.59 90.94 80.24 90.94 73.45C90.94 66.66 95.45 60.3 103.64 55.57C120.14 46.05 146.99 46.05 163.48 55.57C171.67 60.3 176.18 66.65 176.18 73.45C176.18 80.25 171.67 86.6 163.48 91.32C161.02 92.74 158.34 93.25 155.5 93.25C152.05 93.25 148.36 92.5 144.56 91.72L144.57 91.71ZM144.99 89.67C151.51 91.01 157.67 92.27 162.45 89.51C169.97 85.17 174.11 79.46 174.11 73.44C174.11 67.42 169.97 61.71 162.45 57.37C146.53 48.18 120.62 48.18 104.69 57.37C97.17 61.71 93.03 67.42 93.03 73.44C93.03 79.46 97.17 85.17 104.69 89.51C109.42 92.24 114.82 91.07 121.08 89.71C124.88 88.88 128.82 88.02 132.92 88.02C137.02 88.02 141.04 88.86 145 89.67H144.99Z" fill="#373F51"/>
<path d="M173.18 40.49C151.3 27.86 115.83 27.86 93.95 40.49C72.07 53.12 72.07 73.6 93.95 86.23C115.83 98.86 151.3 98.86 173.18 86.23C195.06 73.6 195.06 53.12 173.18 40.49ZM162.97 80.34C146.73 89.71 120.41 89.71 104.17 80.34C87.93 70.97 87.93 55.77 104.17 46.39C120.41 37.02 146.73 37.02 162.97 46.39C179.21 55.76 179.21 70.96 162.97 80.34Z" fill="#0C8CE9"/>
<path d="M93.43 87.13C82.51 80.83 76.5 72.39 76.5 63.36C76.5 54.33 82.51 45.89 93.43 39.58C115.56 26.8 151.57 26.8 173.7 39.58C184.62 45.88 190.63 54.33 190.63 63.35C190.63 72.37 184.62 80.82 173.7 87.12C162.63 93.51 148.1 96.7 133.57 96.7C119.04 96.7 104.5 93.51 93.43 87.12V87.13ZM94.47 41.39C84.23 47.3 78.58 55.11 78.58 63.36C78.58 71.61 84.22 79.41 94.47 85.33C116.03 97.77 151.1 97.78 172.66 85.33C182.91 79.41 188.55 71.61 188.55 63.36C188.55 55.11 182.91 47.31 172.66 41.39C161.88 35.17 147.72 32.06 133.57 32.06C119.42 32.06 105.25 35.17 94.47 41.39ZM103.64 81.24C95.45 76.51 90.94 70.16 90.94 63.36C90.94 56.56 95.45 50.21 103.64 45.49C120.14 35.96 146.98 35.96 163.48 45.49C171.67 50.22 176.18 56.57 176.18 63.36C176.18 70.15 171.67 76.51 163.48 81.24C155.23 86 144.39 88.38 133.56 88.38C122.73 88.38 111.89 86 103.64 81.24ZM162.44 47.29C146.52 38.1 120.61 38.1 104.68 47.29C97.16 51.63 93.02 57.34 93.02 63.36C93.02 69.38 97.16 75.09 104.68 79.43C120.6 88.62 146.51 88.62 162.44 79.43C169.96 75.09 174.1 69.38 174.1 63.36C174.1 57.34 169.96 51.63 162.44 47.29Z" fill="#373F51"/>
<path d="M157.19 92.99H155.59V102.91H157.19V92.99Z" fill="#0C8CE9"/>
<path d="M88.44 82.27H86.84V92.19H88.44V82.27Z" fill="#0C8CE9"/>
<path d="M102.07 89.73H100.47V99.65H102.07V89.73Z" fill="#0C8CE9"/>
<path d="M157.19 43.32H155.59V53.25H157.19V43.32Z" fill="#0C8CE9"/>
<path d="M113.46 42.48H111.86V52.41H113.46V42.48Z" fill="#0C8CE9"/>
<path d="M142.82 50.93C132.87 45.19 116.74 45.19 106.78 50.93C96.83 56.67 96.83 65.99 106.78 71.74C116.73 77.48 132.86 77.48 142.82 71.74C152.77 65.99 152.77 56.68 142.82 50.93Z" fill="#FFFDFD"/>
<path d="M249.76 127.87C249.94 127.56 249.83 127.16 249.52 126.98L176.03 84.93C176.03 84.93 175.61 84.84 175.35 84.99L168.94 88.69C168.34 89.04 167.85 89.97 167.85 90.78V97.79C167.85 98.14 167.95 98.39 168.11 98.55L241.59 140.58C241.9 140.76 242.29 140.65 242.47 140.34L249.75 127.86L249.76 127.87Z" fill="#FFFDFD"/>
<path d="M241.09 141.49L167.61 99.46L167.37 99.27C167.12 99.01 166.82 98.54 166.82 97.79V90.78C166.82 89.61 167.52 88.32 168.43 87.79L174.84 84.09C175.4 83.77 176.07 83.88 176.26 83.92L176.42 83.95L250.05 126.07C250.44 126.3 250.72 126.66 250.84 127.1C250.96 127.54 250.9 128 250.67 128.39L243.39 140.87C243.08 141.41 242.51 141.7 241.93 141.7C241.65 141.7 241.36 141.63 241.1 141.48L241.09 141.49ZM175.75 85.98L169.48 89.6C169.25 89.73 168.91 90.29 168.91 90.79L168.88 97.79L241.79 139.49L248.67 127.69L175.76 85.98H175.75Z" fill="#373F51"/>
<path d="M249.41 137.29L243.01 140.99C242.4 141.34 241.92 140.97 241.92 140.16V133.16C241.92 132.35 242.41 131.42 243.01 131.07L249.41 127.37C250.02 127.02 250.5 127.39 250.5 128.2V135.21C250.5 136.01 250.01 136.95 249.41 137.3V137.29Z" fill="#0C8CE9"/>
<path d="M241.77 141.95C241.2 141.62 240.87 140.97 240.87 140.16V133.16C240.87 131.99 241.57 130.7 242.49 130.17L248.89 126.47C249.48 126.13 250.12 126.11 250.65 126.41C251.22 126.74 251.55 127.39 251.55 128.2V135.21C251.55 136.38 250.85 137.67 249.94 138.2L243.53 141.9C243.22 142.08 242.89 142.17 242.57 142.17C242.29 142.17 242.02 142.1 241.77 141.96V141.95ZM248.89 136.39C249.12 136.26 249.46 135.7 249.46 135.2V128.55L243.52 131.97C243.29 132.1 242.95 132.66 242.95 133.16V139.81L248.89 136.39Z" fill="#373F51"/>
<path d="M167.86 93.04V97.79L241.91 140.16V135.51L167.86 93.04Z" fill="#373F51"/>
<path d="M174.753 91.2999L173.959 92.6889L212.164 114.534L212.959 113.145L174.753 91.2999Z" fill="#373F51"/>
<path d="M220.216 117.511L219.421 118.9L232.076 126.141L232.871 124.752L220.216 117.511Z" fill="#373F51"/>
<path d="M134.4 82.24C154.89 82.24 164.77 71.18 164.88 71.06L163.67 70.01C163.55 70.15 151.1 84.01 124.93 79.88L124.68 81.46C128.15 82.01 131.39 82.25 134.4 82.25V82.24Z" fill="#FFFDFD"/>
<path d="M150.59 75.79C161.15 71.49 163.58 63.91 163.68 63.59L162.15 63.12C162.13 63.19 159.8 70.31 149.99 74.31L150.59 75.79Z" fill="#FFFDFD"/>
<path d="M97.85 69.22C99.6 65.97 102.31 63.2 105.93 60.99L105.09 59.62C101.23 61.98 98.33 64.96 96.44 68.46L97.85 69.22Z" fill="#0C8CE9"/>
<path d="M168.66 95.7H167.06V98.69H168.66V95.7Z" fill="#0C8CE9"/>
<path d="M126.74 63.9C125.22 65.14 126.48 66.89 126.72 67.2C126.73 67.22 126.71 67.23 126.68 67.22C126.15 67.08 123.13 66.35 120.98 67.23C120.95 67.24 120.92 67.23 120.94 67.21C122.46 65.97 121.18 64.21 120.94 63.9C120.93 63.88 120.95 63.87 120.98 63.87C121.51 64.01 124.56 64.75 126.71 63.87C126.74 63.86 126.78 63.87 126.75 63.9H126.74Z" fill="#373F51"/>
<path d="M118.48 59.13C116.96 60.37 118.22 62.12 118.46 62.43C118.47 62.44 118.44 62.46 118.42 62.45C117.89 62.31 114.87 61.58 112.72 62.45C112.69 62.46 112.66 62.45 112.68 62.42C114.2 61.18 112.92 59.42 112.68 59.11C112.67 59.09 112.7 59.08 112.72 59.09C113.25 59.23 116.3 59.97 118.45 59.09C118.48 59.08 118.51 59.09 118.49 59.11L118.48 59.13Z" fill="#373F51"/>
<path d="M135.04 59.11C133.52 60.35 134.78 62.1 135.02 62.41C135.03 62.43 135 62.44 134.98 62.44C134.45 62.3 131.43 61.57 129.28 62.44C129.25 62.45 129.21 62.44 129.24 62.42C130.76 61.18 129.48 59.42 129.24 59.11C129.23 59.09 129.26 59.08 129.28 59.09C129.81 59.23 132.86 59.97 135.01 59.09C135.04 59.08 135.08 59.09 135.05 59.12L135.04 59.11Z" fill="#373F51"/>
<path d="M126.78 54.34C125.26 55.58 126.52 57.33 126.76 57.64C126.77 57.66 126.75 57.67 126.72 57.66C126.19 57.52 123.17 56.79 121.02 57.66C120.99 57.67 120.96 57.66 120.98 57.63C122.5 56.39 121.22 54.63 120.98 54.33C120.97 54.31 121 54.3 121.02 54.31C121.55 54.45 124.6 55.19 126.75 54.31C126.78 54.3 126.81 54.31 126.79 54.33L126.78 54.34Z" fill="#373F51"/>
</svg>
