<svg width="48" height="48" viewBox="0 0 48 48" fill="none" xmlns="http://www.w3.org/2000/svg">
<circle cx="24" cy="24" r="24" fill="#373F51"/>
<path d="M37.7549 30.5849C37.4675 32.0511 36.2468 33.1684 34.7387 33.3779C32.3686 33.7267 28.4184 34.1457 23.9656 34.1457C19.5847 34.1457 15.6345 33.7267 13.1924 33.3779C11.6843 33.1684 10.4629 32.0511 10.1763 30.5849C9.88891 28.9793 9.60156 26.6053 9.60156 23.6729C9.60156 20.7406 9.88891 18.3665 10.1763 16.7609C10.4636 15.2947 11.6843 14.1774 13.1924 13.968C15.5625 13.6191 19.5127 13.2002 23.9656 13.2002C28.4184 13.2002 32.2966 13.6191 34.7387 13.968C36.2468 14.1774 37.4682 15.2947 37.7549 16.7609C38.0422 18.3665 38.4016 20.7406 38.4016 23.6729C38.3296 26.6053 38.0422 28.9793 37.7549 30.5849Z" fill="#FFFDFD"/>
<path d="M20.7288 28.6265V18.72C20.7288 18.2337 21.2708 17.943 21.676 18.2134L29.1064 23.167C29.4683 23.4078 29.4683 23.9393 29.1064 24.1809L21.676 29.1345C21.2708 29.4035 20.7288 29.1135 20.7288 28.6265Z" fill="#373F51"/>
</svg>
