<svg width="48" height="48" viewBox="0 0 48 48" fill="none" xmlns="http://www.w3.org/2000/svg">
<circle cx="24" cy="24" r="24" fill="#373F51"/>
<path d="M24.3996 29.5302C21.5711 29.5302 19.269 27.2288 19.269 24.3996C19.269 21.5704 21.5711 19.269 24.3996 19.269C27.228 19.269 29.5302 21.5704 29.5302 24.3996C29.5302 27.2288 27.228 29.5302 24.3996 29.5302ZM24.3996 20.7349C22.3789 20.7349 20.7349 22.3789 20.7349 24.3996C20.7349 26.4203 22.3789 28.0643 24.3996 28.0643C26.4203 28.0643 28.0643 26.4203 28.0643 24.3996C28.0643 22.3789 26.4203 20.7349 24.3996 20.7349Z" fill="#FFFDFD"/>
<path d="M29.8967 20.0019C30.5039 20.0019 30.9961 19.5097 30.9961 18.9025C30.9961 18.2953 30.5039 17.8031 29.8967 17.8031C29.2895 17.8031 28.7973 18.2953 28.7973 18.9025C28.7973 19.5097 29.2895 20.0019 29.8967 20.0019Z" fill="#FFFDFD"/>
<path d="M28.7973 33.9279H20.0019C17.1735 33.9279 14.8713 31.6264 14.8713 28.7973V20.0019C14.8713 17.1727 17.1735 14.8713 20.0019 14.8713H28.7973C31.6257 14.8713 33.9279 17.1727 33.9279 20.0019V28.7973C33.9279 31.6264 31.6257 33.9279 28.7973 33.9279ZM20.0019 16.3372C17.9812 16.3372 16.3372 17.9812 16.3372 20.0019V28.7973C16.3372 30.818 17.9812 32.462 20.0019 32.462H28.7973C30.818 32.462 32.462 30.818 32.462 28.7973V20.0019C32.462 17.9812 30.818 16.3372 28.7973 16.3372H20.0019Z" fill="#FFFDFD"/>
</svg>
