<svg width="48" height="48" viewBox="0 0 48 48" fill="none" xmlns="http://www.w3.org/2000/svg">
<circle cx="24" cy="24" r="24" fill="#373F51"/>
<rect x="13.1992" y="12" width="22.8" height="24" fill="#FFFDFD"/>
<path d="M34.138 34.142H29.8732V27.4592C29.8732 25.8656 29.8408 23.8148 27.6508 23.8148C25.4272 23.8148 25.0876 25.5488 25.0876 27.3416V34.142H20.8228V20.3996H24.9196V22.2728H24.9748C25.5472 21.1928 26.9392 20.0528 29.0188 20.0528C33.34 20.0528 34.1392 22.8968 34.1392 26.5988L34.138 34.142ZM16.006 18.5192C14.6332 18.5192 13.5304 17.408 13.5304 16.0412C13.5304 14.6756 14.6344 13.5656 16.006 13.5656C17.374 13.5656 18.4828 14.6756 18.4828 16.0412C18.4828 17.408 17.3728 18.5192 16.006 18.5192ZM18.1444 34.142H13.8676V20.3996H18.1444V34.142ZM36.2716 9.59961H11.7268C10.552 9.59961 9.60156 10.5284 9.60156 11.6744V36.3248C9.60156 37.472 10.552 38.3996 11.7268 38.3996H36.268C37.4416 38.3996 38.4016 37.472 38.4016 36.3248V11.6744C38.4016 10.5284 37.4416 9.59961 36.268 9.59961L36.2716 9.59961Z" fill="#373F51"/>
</svg>
