<svg width="48" height="48" viewBox="0 0 48 48" fill="none" xmlns="http://www.w3.org/2000/svg">
<circle cx="24" cy="24" r="24" fill="#373F51"/>
<path fill-rule="evenodd" clip-rule="evenodd" d="M34.6659 38.4H14.1326C12.5126 38.4 11.1992 37.0866 11.1992 35.4667V14.9333C11.1992 13.3134 12.5126 12 14.1326 12H34.6659C36.2858 12 37.5992 13.3134 37.5992 14.9333V35.4667C37.5992 37.0866 36.2858 38.4 34.6659 38.4Z" fill="#373F51"/>
<path fill-rule="evenodd" clip-rule="evenodd" d="M31.921 32.5333H27.2006L16.9405 17.8667H21.661L31.921 32.5333ZM27.763 31.2896H29.6426L21.0985 19.1104H19.219L27.763 31.2896Z" fill="#FFFDFD"/>
<path fill-rule="evenodd" clip-rule="evenodd" d="M18.4343 32.5333L23.7165 26.4144L23.0257 25.4985L16.9361 32.5333H18.4343Z" fill="#FFFDFD"/>
<path fill-rule="evenodd" clip-rule="evenodd" d="M24.7292 23.5287L25.3929 24.474L31.099 17.8667H29.6323L24.7292 23.5287Z" fill="#FFFDFD"/>
</svg>
