<svg width="22" height="22" viewBox="0 0 22 22" fill="none" xmlns="http://www.w3.org/2000/svg">
<mask id="mask0_4556_858" style="mask-type:alpha" maskUnits="userSpaceOnUse" x="0" y="0" width="22" height="22">
<rect width="22" height="22" fill="#D9D9D9"/>
</mask>
<g mask="url(#mask0_4556_858)">
<path d="M8.74362 14.5522C7.22452 14.5522 5.9376 14.0248 4.88288 12.9701C3.82815 11.9154 3.30078 10.6284 3.30078 9.10935C3.30078 7.59024 3.82815 6.30333 4.88288 5.2486C5.9376 4.19387 7.22452 3.6665 8.74362 3.6665C10.2627 3.6665 11.5496 4.19387 12.6044 5.2486C13.6591 6.30333 14.1865 7.59024 14.1865 9.10935C14.1865 9.71722 14.0941 10.2852 13.9093 10.8133C13.7245 11.3414 13.4746 11.8072 13.1597 12.2107L17.7125 16.7685C17.8857 16.9449 17.9723 17.1632 17.9723 17.4233C17.9723 17.6835 17.8841 17.9001 17.7076 18.0733C17.5344 18.2466 17.3169 18.3332 17.0552 18.3332C16.7934 18.3332 16.576 18.2466 16.4027 18.0733L11.8548 13.5254C11.448 13.8403 10.979 14.0902 10.4476 14.275C9.91622 14.4598 9.34823 14.5522 8.74362 14.5522ZM8.74362 12.6867C9.73923 12.6867 10.5844 12.3393 11.279 11.6447C11.9736 10.9501 12.3209 10.105 12.3209 9.10935C12.3209 8.11374 11.9736 7.26862 11.279 6.57399C10.5844 5.87935 9.73923 5.53204 8.74362 5.53204C7.74802 5.53204 6.9029 5.87935 6.20826 6.57399C5.51363 7.26862 5.16631 8.11374 5.16631 9.10935C5.16631 10.105 5.51363 10.9501 6.20826 11.6447C6.9029 12.3393 7.74802 12.6867 8.74362 12.6867Z" fill="#868990"/>
</g>
</svg>
