<svg width="37" height="37" viewBox="0 0 37 37" fill="none" xmlns="http://www.w3.org/2000/svg">
<path d="M28.027 36L8.027 36.019C3.627 36.023 0.0240034 32.427 0.0190034 28.027L3.33381e-06 8.027C-0.00399667 3.627 3.592 0.0240034 7.992 0.0190034L27.992 3.33381e-06C32.392 -0.00399667 35.995 3.592 36 7.992L36.019 27.992C36.024 32.393 32.427 35.996 28.027 36Z" fill="url(#paint0_radial_603_3311)"/>
<path d="M28.027 36L8.027 36.019C3.627 36.023 0.0240034 32.427 0.0190034 28.027L3.33381e-06 8.027C-0.00399667 3.627 3.592 0.0240034 7.992 0.0190034L27.992 3.33381e-06C32.392 -0.00399667 35.995 3.592 36 7.992L36.019 27.992C36.024 32.393 32.427 35.996 28.027 36Z" fill="url(#paint1_radial_603_3311)"/>
<path d="M18.01 25.01C14.151 25.01 11.01 21.87 11.01 18.01C11.01 14.15 14.151 11.01 18.01 11.01C21.869 11.01 25.01 14.15 25.01 18.01C25.01 21.87 21.869 25.01 18.01 25.01ZM18.01 13.01C15.253 13.01 13.01 15.253 13.01 18.01C13.01 20.767 15.253 23.01 18.01 23.01C20.767 23.01 23.01 20.767 23.01 18.01C23.01 15.253 20.767 13.01 18.01 13.01Z" fill="#FFFDFD"/>
<path d="M25.51 12.01C26.3384 12.01 27.01 11.3384 27.01 10.51C27.01 9.68158 26.3384 9.01 25.51 9.01C24.6816 9.01 24.01 9.68158 24.01 10.51C24.01 11.3384 24.6816 12.01 25.51 12.01Z" fill="#FFFDFD"/>
<path d="M24.01 31.01H12.01C8.151 31.01 5.01 27.87 5.01 24.01V12.01C5.01 8.15 8.151 5.01 12.01 5.01H24.01C27.869 5.01 31.01 8.15 31.01 12.01V24.01C31.01 27.87 27.869 31.01 24.01 31.01ZM12.01 7.01C9.253 7.01 7.01 9.253 7.01 12.01V24.01C7.01 26.767 9.253 29.01 12.01 29.01H24.01C26.767 29.01 29.01 26.767 29.01 24.01V12.01C29.01 9.253 26.767 7.01 24.01 7.01H12.01Z" fill="#FFFDFD"/>
<defs>
<radialGradient id="paint0_radial_603_3311" cx="0" cy="0" r="1" gradientUnits="userSpaceOnUse" gradientTransform="translate(13.39 36.045) scale(44.899 44.899)">
<stop stop-color="#FFDD55"/>
<stop offset="0.328" stop-color="#FF543F"/>
<stop offset="0.348" stop-color="#FC5245"/>
<stop offset="0.504" stop-color="#E64771"/>
<stop offset="0.643" stop-color="#D53E91"/>
<stop offset="0.761" stop-color="#CC39A4"/>
<stop offset="0.841" stop-color="#C837AB"/>
</radialGradient>
<radialGradient id="paint1_radial_603_3311" cx="0" cy="0" r="1" gradientUnits="userSpaceOnUse" gradientTransform="translate(5.796 -0.449694) scale(29.813 19.8644)">
<stop stop-color="#4168C9"/>
<stop offset="0.999" stop-color="#4168C9" stop-opacity="0"/>
</radialGradient>
</defs>
</svg>
