<svg width="60" height="60" viewBox="0 0 60 60" fill="none" xmlns="http://www.w3.org/2000/svg">
<circle cx="30" cy="30" r="30" fill="url(#paint0_linear_3052_12234)"/>
<path d="M30.5005 36.9137C26.9649 36.9137 24.0872 34.0369 24.0872 30.5005C24.0872 26.964 26.9649 24.0872 30.5005 24.0872C34.036 24.0872 36.9137 26.964 36.9137 30.5005C36.9137 34.0369 34.036 36.9137 30.5005 36.9137ZM30.5005 25.9195C27.9745 25.9195 25.9195 27.9745 25.9195 30.5005C25.9195 33.0264 27.9745 35.0814 30.5005 35.0814C33.0264 35.0814 35.0814 33.0264 35.0814 30.5005C35.0814 27.9745 33.0264 25.9195 30.5005 25.9195Z" fill="#FFFDFD"/>
<path d="M37.3718 25.0034C38.1308 25.0034 38.7461 24.3881 38.7461 23.6291C38.7461 22.8701 38.1308 22.2548 37.3718 22.2548C36.6128 22.2548 35.9976 22.8701 35.9976 23.6291C35.9976 24.3881 36.6128 25.0034 37.3718 25.0034Z" fill="#FFFDFD"/>
<path d="M35.9976 42.4108H25.0034C21.4678 42.4108 18.5901 39.534 18.5901 35.9976V25.0034C18.5901 21.4669 21.4678 18.5901 25.0034 18.5901H35.9976C39.5331 18.5901 42.4108 21.4669 42.4108 25.0034V35.9976C42.4108 39.534 39.5331 42.4108 35.9976 42.4108ZM25.0034 20.4224C22.4774 20.4224 20.4224 22.4774 20.4224 25.0034V35.9976C20.4224 38.5235 22.4774 40.5785 25.0034 40.5785H35.9976C38.5235 40.5785 40.5785 38.5235 40.5785 35.9976V25.0034C40.5785 22.4774 38.5235 20.4224 35.9976 20.4224H25.0034Z" fill="#FFFDFD"/>
<defs>
<linearGradient id="paint0_linear_3052_12234" x1="-8.9407e-07" y1="60" x2="70.5882" y2="42.3529" gradientUnits="userSpaceOnUse">
<stop stop-color="#F5CB5D"/>
<stop offset="0.392501" stop-color="#F75712"/>
<stop offset="0.697093" stop-color="#D12D62"/>
<stop offset="1" stop-color="#46489D"/>
</linearGradient>
</defs>
</svg>
