<svg width="36" height="37" viewBox="0 0 36 37" fill="none" xmlns="http://www.w3.org/2000/svg">
<path d="M36 31.0095C36 33.7715 33.762 36.0095 31 36.0095H5C2.239 36.0095 0 33.7715 0 31.0095V5.00952C0 2.24752 2.239 0.00952148 5 0.00952148H31C33.762 0.00952148 36 2.24752 36 5.00952V31.0095Z" fill="#095A94"/>
<path d="M6 13.0095H11V30.0095H6V13.0095ZM8.485 11.0095H8.457C6.965 11.0095 6 9.89752 6 8.50852C6 7.08952 6.995 6.00952 8.514 6.00952C10.035 6.00952 10.972 7.08952 11 8.50852C11 9.89652 10.035 11.0095 8.485 11.0095ZM30 30.0095H25V20.9105C25 18.7125 23.775 17.2125 21.808 17.2125C20.307 17.2125 19.495 18.2245 19.101 19.2025C18.957 19.5525 19 20.5205 19 21.0095V30.0095H14V13.0095H19V15.6255C19.721 14.5095 20.85 13.0095 23.738 13.0095C27.316 13.0095 29.999 15.2595 29.999 20.2835L30 30.0095Z" fill="#FFFDFD"/>
</svg>
