<svg width="60" height="60" viewBox="0 0 60 60" fill="none" xmlns="http://www.w3.org/2000/svg">
<circle cx="30" cy="30" r="30" fill="#0B66C2"/>
<path d="M47 42.4167C47 44.9485 44.9485 47 42.4167 47H18.5833C16.0524 47 14 44.9485 14 42.4167V18.5833C14 16.0515 16.0524 14 18.5833 14H42.4167C44.9485 14 47 16.0515 47 18.5833V42.4167Z" fill="#0B66C2"/>
<path d="M19.5 25.9167H24.0833V41.5H19.5V25.9167ZM21.7779 24.0833H21.7523C20.3846 24.0833 19.5 23.064 19.5 21.7908C19.5 20.49 20.4121 19.5 21.8045 19.5C23.1988 19.5 24.0577 20.49 24.0833 21.7908C24.0833 23.0631 23.1988 24.0833 21.7779 24.0833ZM41.5 41.5H36.9167V33.1593C36.9167 31.1444 35.7938 29.7694 33.9907 29.7694C32.6147 29.7694 31.8704 30.6971 31.5093 31.5936C31.3773 31.9144 31.4167 32.8018 31.4167 33.25V41.5H26.8333V25.9167H31.4167V28.3147C32.0776 27.2917 33.1125 25.9167 35.7598 25.9167C39.0397 25.9167 41.4991 27.9792 41.4991 32.5845L41.5 41.5Z" fill="#FFFDFD"/>
</svg>
