<svg width="253" height="40" viewBox="0 0 253 40" fill="none" xmlns="http://www.w3.org/2000/svg">
<g clip-path="url(#clip0_4047_500)">
<path d="M14.9138 5C11.9641 5 9.08069 5.87542 6.62811 7.51556C4.17554 9.1557 2.26399 11.4869 1.1352 14.2143C0.00640362 16.9418 -0.288944 19.943 0.286511 22.8384C0.861965 25.7339 2.28238 28.3935 4.36812 30.481C6.45386 32.5685 9.11126 33.9901 12.0043 34.5661C14.8973 35.142 17.896 34.8464 20.6211 33.7167C23.3463 32.5869 25.6755 30.6738 27.3142 28.2191C28.953 25.7645 29.8277 22.8786 29.8277 19.9264C29.8277 15.9677 28.2564 12.1711 25.4595 9.37186C22.6626 6.5726 18.8692 5 14.9138 5ZM14.9138 29.1563C13.0899 29.1563 11.3069 28.615 9.79029 27.6008C8.27372 26.5866 7.0917 25.1451 6.3937 23.4586C5.6957 21.772 5.51308 19.9162 5.86891 18.1258C6.22475 16.3354 7.10307 14.6908 8.39281 13.3999C9.68254 12.1091 11.3258 11.2301 13.1147 10.8739C14.9036 10.5178 16.7578 10.7006 18.443 11.3991C20.1281 12.0977 21.5684 13.2808 22.5817 14.7986C23.5951 16.3164 24.1359 18.1009 24.1359 19.9264C24.1359 22.3744 23.1643 24.722 21.4348 26.453C19.7053 28.1839 17.3597 29.1563 14.9138 29.1563Z" fill="#36BCF7"/>
<path d="M66.5 5C63.5503 5 60.6669 5.87542 58.2143 7.51556C55.7617 9.1557 53.8502 11.4869 52.7214 14.2143C51.5926 16.9418 51.2972 19.943 51.8727 22.8384C52.4481 25.7339 53.8686 28.3935 55.9543 30.481C58.04 32.5685 60.6974 33.9901 63.5904 34.5661C66.4835 35.142 69.4821 34.8464 72.2073 33.7167C74.9324 32.5869 77.2617 30.6738 78.9004 28.2191C80.5392 25.7645 81.4139 22.8786 81.4139 19.9264C81.4139 15.9677 79.8426 12.1711 77.0457 9.37186C74.2488 6.5726 70.4554 5 66.5 5ZM66.5 29.1563C64.676 29.1563 62.893 28.615 61.3765 27.6008C59.8599 26.5866 58.6779 25.1451 57.9799 23.4586C57.2819 21.772 57.0993 19.9162 57.4551 18.1258C57.8109 16.3354 58.6893 14.6908 59.979 13.3999C61.2687 12.1091 62.9119 11.2301 64.7009 10.8739C66.4898 10.5178 68.344 10.7006 70.0291 11.3991C71.7143 12.0977 73.1546 13.2808 74.1679 14.7986C75.1812 16.3164 75.7221 18.1009 75.7221 19.9264C75.7221 22.3744 74.7505 24.722 73.021 26.453C71.2915 28.1839 68.9459 29.1563 66.5 29.1563Z" fill="#36BCF7"/>
<path d="M118.086 5C115.136 5 112.253 5.87542 109.8 7.51556C107.348 9.1557 105.436 11.4869 104.307 14.2143C103.179 16.9418 102.883 19.943 103.459 22.8384C104.034 25.7339 105.455 28.3935 107.54 30.481C109.626 32.5685 112.284 33.9901 115.177 34.5661C118.07 35.142 121.068 34.8464 123.793 33.7167C126.519 32.5869 128.848 30.6738 130.487 28.2191C132.125 25.7645 133 22.8786 133 19.9264C133 15.9677 131.429 12.1711 128.632 9.37186C125.835 6.5726 122.042 5 118.086 5ZM118.086 29.1563C116.262 29.1563 114.479 28.615 112.963 27.6008C111.446 26.5866 110.264 25.1451 109.566 23.4586C108.868 21.772 108.685 19.9162 109.041 18.1258C109.397 16.3354 110.275 14.6908 111.565 13.3999C112.855 12.1091 114.498 11.2301 116.287 10.8739C118.076 10.5178 119.93 10.7006 121.615 11.3991C123.3 12.0977 124.741 13.2808 125.754 14.7986C126.767 16.3164 127.308 18.1009 127.308 19.9264C127.308 22.3744 126.337 24.722 124.607 26.453C122.878 28.1839 120.532 29.1563 118.086 29.1563Z" fill="#36BCF7"/>
<path d="M43.4303 22.3781V35.0072H34.8465V22.3781H32.6851V16.321H34.8465C34.9618 11.2955 36.8005 7.91651 40.3625 6.18398C42.2942 5.50832 44.325 5.15983 46.3713 5.15283H49.8469V11.0585C46.6854 11.2172 44.8602 11.6397 44.3713 12.3262C43.7645 13.131 43.433 14.11 43.426 15.1182V16.321H48.7762V22.3781H43.4303Z" fill="#36BCF7"/>
<path d="M95.0165 22.3781V35.0072H86.4327V22.3781H84.2713V16.321H86.4327C86.548 11.2955 88.3867 7.91651 91.9487 6.18398C93.8804 5.50832 95.9112 5.15983 97.9575 5.15283H101.433V11.0585C98.2716 11.2172 96.4464 11.6397 95.9574 12.3262C95.3507 13.131 95.0192 14.11 95.0122 15.1182V16.321H100.362V22.3781H95.0165Z" fill="#36BCF7"/>
<path d="M69.4756 9.96108C67.5709 9.47076 65.5732 9.47076 63.6685 9.96108C62.7175 10.2005 61.703 9.83416 61.363 8.96454C61.0186 8.09924 61.7016 6.95271 62.9408 6.63543C65.3247 6.0211 67.8252 6.0211 70.209 6.63543C71.4482 6.95271 72.1312 8.09924 71.794 8.96454C71.441 9.83128 70.4266 10.2005 69.4756 9.96108Z" fill="#FFFDFD"/>
<path d="M70.1024 9.68709C70.8186 9.68709 71.3993 9.10598 71.3993 8.38914C71.3993 7.6723 70.8186 7.09119 70.1024 7.09119C69.3862 7.09119 68.8055 7.6723 68.8055 8.38914C68.8055 9.10598 69.3862 9.68709 70.1024 9.68709Z" fill="#36BCF7"/>
</g>
<path d="M167.175 6.81818V33H162.393L151.003 16.5213H150.811V33H145.276V6.81818H150.134L161.435 23.2841H161.665V6.81818H167.175ZM171.748 33V6.81818H189.39V11.3821H177.284V17.6207H188.483V22.1847H177.284V28.4361H189.441V33H171.748ZM199.685 33L192.193 6.81818H198.24L202.574 25.0099H202.791L207.572 6.81818H212.75L217.518 25.0483H217.749L222.082 6.81818H228.129L220.638 33H215.243L210.257 15.8821H210.053L205.08 33H199.685ZM245.049 14.348C244.947 13.3168 244.508 12.5156 243.732 11.9446C242.957 11.3736 241.904 11.0881 240.575 11.0881C239.671 11.0881 238.908 11.2159 238.286 11.4716C237.664 11.7187 237.187 12.0639 236.854 12.5071C236.531 12.9503 236.369 13.4531 236.369 14.0156C236.352 14.4844 236.45 14.8935 236.663 15.2429C236.884 15.5923 237.187 15.8949 237.57 16.1506C237.954 16.3977 238.397 16.6151 238.9 16.8026C239.403 16.9815 239.94 17.1349 240.511 17.2628L242.863 17.8253C244.005 18.081 245.053 18.4219 246.008 18.848C246.962 19.2741 247.789 19.7983 248.488 20.4205C249.187 21.0426 249.728 21.7756 250.112 22.6193C250.504 23.4631 250.704 24.4304 250.712 25.5213C250.704 27.1236 250.295 28.5128 249.485 29.6889C248.684 30.8565 247.525 31.7642 246.008 32.4119C244.499 33.0511 242.68 33.3707 240.549 33.3707C238.435 33.3707 236.594 33.0469 235.026 32.3991C233.467 31.7514 232.248 30.7926 231.37 29.5227C230.501 28.2443 230.045 26.6634 230.002 24.7798H235.359C235.418 25.6577 235.67 26.3906 236.113 26.9787C236.565 27.5582 237.165 27.9972 237.915 28.2955C238.674 28.5852 239.531 28.7301 240.485 28.7301C241.423 28.7301 242.237 28.5937 242.927 28.321C243.626 28.0483 244.167 27.669 244.55 27.1832C244.934 26.6974 245.126 26.1392 245.126 25.5085C245.126 24.9205 244.951 24.4261 244.602 24.0256C244.261 23.625 243.758 23.2841 243.093 23.0028C242.437 22.7216 241.631 22.4659 240.677 22.2358L237.826 21.5199C235.619 20.983 233.876 20.1435 232.597 19.0014C231.319 17.8594 230.684 16.321 230.692 14.3864C230.684 12.8011 231.106 11.4162 231.958 10.2315C232.819 9.04687 233.999 8.12216 235.499 7.45739C236.999 6.79261 238.704 6.46023 240.613 6.46023C242.556 6.46023 244.252 6.79261 245.701 7.45739C247.158 8.12216 248.292 9.04687 249.102 10.2315C249.911 11.4162 250.329 12.7884 250.354 14.348H245.049Z" fill="#373F51"/>
<defs>
<clipPath id="clip0_4047_500">
<rect width="133" height="30" fill="white" transform="translate(0 5)"/>
</clipPath>
</defs>
</svg>
