<svg width="133" height="30" viewBox="0 0 133 30" fill="none" xmlns="http://www.w3.org/2000/svg">
    <g clip-path="url(#clip0_5087_6)">
    <path d="M14.9139 0C11.9642 0 9.08075 0.875422 6.62817 2.51556C4.1756 4.1557 2.26406 6.48689 1.13526 9.21434C0.00646465 11.9418 -0.288883 14.943 0.286572 17.8384C0.862026 20.7339 2.28244 23.3935 4.36818 25.481C6.45392 27.5685 9.11132 28.9901 12.0043 29.5661C14.8973 30.142 17.896 29.8464 20.6212 28.7167C23.3463 27.5869 25.6756 25.6738 27.3143 23.2191C28.9531 20.7645 29.8277 17.8786 29.8277 14.9264C29.8277 10.9677 28.2565 7.17111 25.4596 4.37186C22.6627 1.5726 18.8693 0 14.9139 0ZM14.9139 24.1563C13.0899 24.1563 11.3069 23.615 9.79035 22.6008C8.27378 21.5866 7.09176 20.1451 6.39376 18.4586C5.69576 16.772 5.51314 14.9162 5.86897 13.1258C6.22481 11.3354 7.10313 9.69076 8.39287 8.39994C9.6826 7.10912 11.3258 6.23005 13.1147 5.87392C14.9036 5.51778 16.7579 5.70056 18.443 6.39915C20.1281 7.09774 21.5684 8.28076 22.5818 9.7986C23.5951 11.3164 24.136 13.1009 24.136 14.9264C24.136 17.3744 23.1644 19.722 21.4349 21.453C19.7054 23.1839 17.3597 24.1563 14.9139 24.1563Z" fill="#36BCF7"/>
    <path d="M66.4998 0C63.5501 0 60.6667 0.875422 58.2141 2.51556C55.7615 4.1557 53.85 6.48689 52.7212 9.21434C51.5924 11.9418 51.2971 14.943 51.8725 17.8384C52.448 20.7339 53.8684 23.3935 55.9541 25.481C58.0399 27.5685 60.6973 28.9901 63.5903 29.5661C66.4833 30.142 69.482 29.8464 72.2071 28.7167C74.9323 27.5869 77.2615 25.6738 78.9002 23.2191C80.539 20.7645 81.4137 17.8786 81.4137 14.9264C81.4137 10.9677 79.8424 7.17111 77.0455 4.37186C74.2486 1.5726 70.4552 0 66.4998 0ZM66.4998 24.1563C64.6759 24.1563 62.8929 23.615 61.3763 22.6008C59.8597 21.5866 58.6777 20.1451 57.9797 18.4586C57.2817 16.772 57.0991 14.9162 57.4549 13.1258C57.8107 11.3354 58.6891 9.69076 59.9788 8.39994C61.2685 7.10912 62.9118 6.23005 64.7007 5.87392C66.4896 5.51778 68.3438 5.70056 70.029 6.39915C71.7141 7.09774 73.1544 8.28076 74.1677 9.7986C75.1811 11.3164 75.7219 13.1009 75.7219 14.9264C75.7219 17.3744 74.7503 19.722 73.0208 21.453C71.2914 23.1839 68.9457 24.1563 66.4998 24.1563Z" fill="#36BCF7"/>
    <path d="M118.086 0C115.136 0 112.253 0.875422 109.8 2.51556C107.347 4.1557 105.436 6.48689 104.307 9.21434C103.178 11.9418 102.883 14.943 103.458 17.8384C104.034 20.7339 105.454 23.3935 107.54 25.481C109.626 27.5685 112.283 28.9901 115.176 29.5661C118.069 30.142 121.068 29.8464 123.793 28.7167C126.518 27.5869 128.847 25.6738 130.486 23.2191C132.125 20.7645 133 17.8786 133 14.9264C133 10.9677 131.428 7.17111 128.631 4.37186C125.835 1.5726 122.041 0 118.086 0ZM118.086 24.1563C116.262 24.1563 114.479 23.615 112.962 22.6008C111.446 21.5866 110.264 20.1451 109.566 18.4586C108.868 16.772 108.685 14.9162 109.041 13.1258C109.397 11.3354 110.275 9.69076 111.565 8.39994C112.854 7.10912 114.498 6.23005 116.287 5.87392C118.076 5.51778 119.93 5.70056 121.615 6.39915C123.3 7.09774 124.74 8.28076 125.754 9.7986C126.767 11.3164 127.308 13.1009 127.308 14.9264C127.308 17.3744 126.336 19.722 124.607 21.453C122.877 23.1839 120.532 24.1563 118.086 24.1563Z" fill="#36BCF7"/>
    <path d="M43.4307 17.3781V30.0072H34.847V17.3781H32.6855V11.321H34.847C34.9623 6.29551 36.8009 2.91651 40.3629 1.18398C42.2947 0.508322 44.3254 0.159825 46.3717 0.152832H49.8473V6.05852C46.6858 6.21715 44.8606 6.63971 44.3717 7.32618C43.7649 8.13098 43.4335 9.11005 43.4264 10.1182V11.321H48.7767V17.3781H43.4307Z" fill="#36BCF7"/>
    <path d="M95.0167 17.3781V30.0072H86.4329V17.3781H84.2715V11.321H86.4329C86.5482 6.29551 88.3869 2.91651 91.9489 1.18398C93.8806 0.508322 95.9114 0.159825 97.9577 0.152832H101.433V6.05852C98.2718 6.21715 96.4466 6.63971 95.9576 7.32618C95.3509 8.13098 95.0194 9.11005 95.0124 10.1182V11.321H100.363V17.3781H95.0167Z" fill="#36BCF7"/>
    <path d="M69.4749 4.9612C67.5703 4.47088 65.5726 4.47088 63.6679 4.9612C62.7169 5.2006 61.7024 4.83429 61.3624 3.96466C61.018 3.09936 61.701 1.95283 62.9402 1.63556C65.3241 1.02122 67.8245 1.02122 70.2084 1.63556C71.4476 1.95283 72.1306 3.09936 71.7934 3.96466C71.4404 4.8314 70.426 5.2006 69.4749 4.9612Z" fill="#FFFDFD"/>
    <path d="M70.1015 4.68721C70.8178 4.68721 71.3984 4.1061 71.3984 3.38926C71.3984 2.67242 70.8178 2.09131 70.1015 2.09131C69.3853 2.09131 68.8047 2.67242 68.8047 3.38926C68.8047 4.1061 69.3853 4.68721 70.1015 4.68721Z" fill="#36BCF7"/>
    </g>
    <defs>
    <clipPath id="clip0_5087_6">
    <rect width="133" height="30" fill="white"/>
    </clipPath>
    </defs>
    </svg>
    