<svg width="24" height="25" viewBox="0 0 24 25" fill="none" xmlns="http://www.w3.org/2000/svg">
<mask id="mask0_1160_2048" style="mask-type:alpha" maskUnits="userSpaceOnUse" x="0" y="0" width="24" height="25">
<rect y="0.0976562" width="24" height="24" fill="#D9D9D9"/>
</mask>
<g mask="url(#mask0_1160_2048)">
<path d="M3.9344 18.3906C3.61518 18.3906 3.34579 18.2808 3.12622 18.0612C2.90666 17.8417 2.79688 17.5723 2.79688 17.2531C2.79688 16.9339 2.90666 16.6645 3.12622 16.4449C3.34579 16.2253 3.61518 16.1156 3.9344 16.1156H20.0659C20.3851 16.1156 20.6545 16.2253 20.8741 16.4449C21.0936 16.6645 21.2034 16.9339 21.2034 17.2531C21.2034 17.5723 21.0936 17.8417 20.8741 18.0612C20.6545 18.2808 20.3851 18.3906 20.0659 18.3906H3.9344ZM3.9344 13.2351C3.61518 13.2351 3.34579 13.1254 3.12622 12.9058C2.90666 12.6862 2.79688 12.4168 2.79688 12.0976C2.79688 11.7784 2.90666 11.5091 3.12622 11.2895C3.34579 11.0699 3.61518 10.9601 3.9344 10.9601H20.0659C20.3851 10.9601 20.6545 11.0699 20.8741 11.2895C21.0936 11.5091 21.2034 11.7784 21.2034 12.0976C21.2034 12.4168 21.0936 12.6862 20.8741 12.9058C20.6545 13.1254 20.3851 13.2351 20.0659 13.2351H3.9344ZM3.9344 8.07971C3.61518 8.07971 3.34579 7.96993 3.12622 7.75036C2.90666 7.5308 2.79688 7.2614 2.79688 6.94219C2.79688 6.62299 2.90666 6.3536 3.12622 6.13404C3.34579 5.91447 3.61518 5.80469 3.9344 5.80469H20.0659C20.3851 5.80469 20.6545 5.91447 20.8741 6.13404C21.0936 6.3536 21.2034 6.62299 21.2034 6.94219C21.2034 7.2614 21.0936 7.5308 20.8741 7.75036C20.6545 7.96993 20.3851 8.07971 20.0659 8.07971H3.9344Z" fill="#373F51"/>
</g>
</svg>
