<svg width="100" height="23" viewBox="0 0 100 23" fill="none" xmlns="http://www.w3.org/2000/svg">
<path fill-rule="evenodd" clip-rule="evenodd" d="M21.2769 5.82382e-10H50.7692H59.7385H97.9999C99.1045 5.82382e-10 99.9999 0.895431 99.9999 2V21C99.9999 22.1046 99.1045 23 97.9999 23H59.7385H50.7692H10.8C10.4 23 10 22.9178 9.61539 22.7535C9.23077 22.5892 8.89231 22.3428 8.58462 22.0143L0.892311 13.8C0.292311 13.1593 0 12.4036 0 11.5C0 10.5964 0.292311 9.82425 0.892311 9.19996L8.58462 0.985674C8.89231 0.657103 9.23077 0.410704 9.61539 0.246419C10 0.0821328 10.4 -3.40911e-05 10.8 0.0163945H21.1077C21.1539 -3.40911e-05 21.2769 5.82382e-10 21.2769 5.82382e-10ZM8.83078 14.2928C9.46155 14.2928 10 14.0628 10.4615 13.57C10.9077 13.0935 11.1385 12.5021 11.1385 11.8285C11.1385 11.155 10.9077 10.5635 10.4615 10.0871C10 9.61069 9.47693 9.36426 8.83078 9.36426C8.18462 9.36426 7.64617 9.61069 7.20001 10.0871C6.73847 10.5635 6.50769 11.155 6.50769 11.8285C6.50769 12.5021 6.73847 13.0935 7.20001 13.57C7.64617 14.0628 8.20001 14.2928 8.83078 14.2928Z" fill="#36B078"/>
</svg>
