<svg width="27" height="24" viewBox="0 0 27 24" fill="none" xmlns="http://www.w3.org/2000/svg">
<rect width="27" height="24" rx="6" fill="#DFEFFC"/>
<mask id="mask0_3513_18459" style="mask-type:alpha" maskUnits="userSpaceOnUse" x="4" y="2" width="20" height="20">
<rect x="4" y="2" width="20" height="20" fill="#D9D9D9"/>
</mask>
<g mask="url(#mask0_3513_18459)">
<path d="M18.4444 19.5926C17.8272 19.5926 17.3025 19.3766 16.8704 18.9445C16.4383 18.5124 16.2222 17.9877 16.2222 17.3704C16.2222 17.284 16.2284 17.1945 16.2407 17.1019C16.2531 17.0093 16.2716 16.926 16.2963 16.8519L11.0741 13.8149C10.8642 14.0001 10.6296 14.1451 10.3704 14.2501C10.1111 14.355 9.83951 14.4075 9.55556 14.4075C8.93827 14.4075 8.41358 14.1914 7.98148 13.7593C7.54938 13.3272 7.33333 12.8025 7.33333 12.1852C7.33333 11.568 7.54938 11.0433 7.98148 10.6112C8.41358 10.1791 8.93827 9.96302 9.55556 9.96302C9.83951 9.96302 10.1111 10.0155 10.3704 10.1204C10.6296 10.2254 10.8642 10.3704 11.0741 10.5556L16.2963 7.51857C16.2716 7.4445 16.2531 7.36117 16.2407 7.26857C16.2284 7.17598 16.2222 7.08647 16.2222 7.00005C16.2222 6.38277 16.4383 5.85808 16.8704 5.42598C17.3025 4.99388 17.8272 4.77783 18.4444 4.77783C19.0617 4.77783 19.5864 4.99388 20.0185 5.42598C20.4506 5.85808 20.6667 6.38277 20.6667 7.00005C20.6667 7.61734 20.4506 8.14203 20.0185 8.57413C19.5864 9.00623 19.0617 9.22228 18.4444 9.22228C18.1605 9.22228 17.8889 9.16981 17.6296 9.06487C17.3704 8.95993 17.1358 8.81487 16.9259 8.62968L11.7037 11.6667C11.7284 11.7408 11.7469 11.8241 11.7593 11.9167C11.7716 12.0093 11.7778 12.0988 11.7778 12.1852C11.7778 12.2717 11.7716 12.3612 11.7593 12.4538C11.7469 12.5464 11.7284 12.6297 11.7037 12.7038L16.9259 15.7408C17.1358 15.5556 17.3704 15.4105 17.6296 15.3056C17.8889 15.2007 18.1605 15.1482 18.4444 15.1482C19.0617 15.1482 19.5864 15.3643 20.0185 15.7964C20.4506 16.2284 20.6667 16.7531 20.6667 17.3704C20.6667 17.9877 20.4506 18.5124 20.0185 18.9445C19.5864 19.3766 19.0617 19.5926 18.4444 19.5926Z" fill="#373F51"/>
</g>
</svg>
