<svg width="20" height="20" viewBox="0 0 20 20" fill="none" xmlns="http://www.w3.org/2000/svg">
<path d="M15 13.4333C14.3667 13.4333 13.8 13.6833 13.3667 14.075L7.425 10.6166C7.46667 10.425 7.5 10.2333 7.5 10.0333C7.5 9.83328 7.46667 9.64162 7.425 9.44995L13.3 6.02495C13.75 6.44162 14.3417 6.69995 15 6.69995C16.3833 6.69995 17.5 5.58328 17.5 4.19995C17.5 2.81662 16.3833 1.69995 15 1.69995C13.6167 1.69995 12.5 2.81662 12.5 4.19995C12.5 4.39995 12.5333 4.59162 12.575 4.78328L6.7 8.20828C6.25 7.79162 5.65833 7.53328 5 7.53328C3.61667 7.53328 2.5 8.64995 2.5 10.0333C2.5 11.4166 3.61667 12.5333 5 12.5333C5.65833 12.5333 6.25 12.275 6.7 11.8583L12.6333 15.325C12.5917 15.5 12.5667 15.6833 12.5667 15.8666C12.5667 17.2083 13.6583 18.2999 15 18.2999C16.3417 18.2999 17.4333 17.2083 17.4333 15.8666C17.4333 14.525 16.3417 13.4333 15 13.4333Z" fill="#373F51"/>
</svg>
