<svg width="22" height="22" viewBox="0 0 22 22" fill="none" xmlns="http://www.w3.org/2000/svg">
<rect width="22" height="22" rx="4" fill="#FFFDFD"/>
<mask id="mask0_3052_12230" style="mask-type:alpha" maskUnits="userSpaceOnUse" x="4" y="4" width="14" height="14">
<rect x="4" y="4" width="14" height="14" fill="#D9D9D9"/>
</mask>
<g mask="url(#mask0_3052_12230)">
<path d="M9.25 14.4998C8.92917 14.4998 8.65451 14.3856 8.42604 14.1571C8.19757 13.9287 8.08333 13.654 8.08333 13.3332V6.33317C8.08333 6.01234 8.19757 5.73768 8.42604 5.50921C8.65451 5.28074 8.92917 5.1665 9.25 5.1665H14.5C14.8208 5.1665 15.0955 5.28074 15.324 5.50921C15.5524 5.73768 15.6667 6.01234 15.6667 6.33317V13.3332C15.6667 13.654 15.5524 13.9287 15.324 14.1571C15.0955 14.3856 14.8208 14.4998 14.5 14.4998H9.25ZM6.91667 16.8332C6.59583 16.8332 6.32118 16.7189 6.09271 16.4905C5.86424 16.262 5.75 15.9873 5.75 15.6665V8.08317C5.75 7.91789 5.8059 7.77935 5.91771 7.66755C6.02951 7.55574 6.16806 7.49984 6.33333 7.49984C6.49861 7.49984 6.63715 7.55574 6.74896 7.66755C6.86076 7.77935 6.91667 7.91789 6.91667 8.08317V15.6665H12.75C12.9153 15.6665 13.0538 15.7224 13.1656 15.8342C13.2774 15.946 13.3333 16.0846 13.3333 16.2498C13.3333 16.4151 13.2774 16.5537 13.1656 16.6655C13.0538 16.7773 12.9153 16.8332 12.75 16.8332H6.91667Z" fill="#373F51"/>
</g>
</svg>
