<svg width="60" height="60" viewBox="0 0 60 60" fill="none" xmlns="http://www.w3.org/2000/svg">
<circle cx="30" cy="30" r="30" fill="#26A5E4"/>
<path d="M18.4008 29.7761C25.7321 26.5508 35.2195 22.6186 36.5291 22.0743C39.9643 20.6498 41.0184 20.9228 40.4928 24.0775C40.1154 26.3449 39.0263 33.8518 38.1583 38.5243C37.6432 41.2951 36.4876 41.6236 34.6706 40.4248C33.7967 39.8479 29.3861 36.9312 28.4289 36.2464C27.5551 35.6222 26.3499 34.8715 27.8613 33.3927C28.3991 32.866 31.9248 29.4996 34.6717 26.8792C35.0316 26.5351 34.5796 25.9698 34.1642 26.2457C30.4618 28.701 25.3285 32.1088 24.6751 32.5527C23.6881 33.223 22.7402 33.5304 21.0386 33.0416C19.753 32.6723 18.4971 32.2319 18.0082 32.0639C16.1258 31.4176 16.5726 30.5805 18.4008 29.7761Z" fill="#FFFDFD"/>
</svg>
