<svg width="37" height="37" viewBox="0 0 37 37" fill="none" xmlns="http://www.w3.org/2000/svg">
<path fill-rule="evenodd" clip-rule="evenodd" d="M32.019 36.0095H4.01904C1.81004 36.0095 0.019043 34.2185 0.019043 32.0095V4.00952C0.019043 1.80052 1.81004 0.00952148 4.01904 0.00952148H32.019C34.228 0.00952148 36.019 1.80052 36.019 4.00952V32.0095C36.019 34.2185 34.228 36.0095 32.019 36.0095Z" fill="#373F51"/>
<path fill-rule="evenodd" clip-rule="evenodd" d="M28.276 28.0095H21.839L7.84804 8.00952H14.285L28.276 28.0095ZM22.606 26.3135H25.169L13.518 9.70552H10.955L22.606 26.3135Z" fill="#FFFDFD"/>
<path fill-rule="evenodd" clip-rule="evenodd" d="M9.88504 28.0095L17.088 19.6655L16.146 18.4165L7.84204 28.0095H9.88504Z" fill="#FFFDFD"/>
<path fill-rule="evenodd" clip-rule="evenodd" d="M18.469 15.7305L19.374 17.0195L27.155 8.00952H25.155L18.469 15.7305Z" fill="#FFFDFD"/>
</svg>
