<svg width="60" height="60" viewBox="0 0 60 60" fill="none" xmlns="http://www.w3.org/2000/svg">
<circle cx="30" cy="30" r="30" fill="#373F51"/>
<path fill-rule="evenodd" clip-rule="evenodd" d="M43.3333 48H17.6667C15.6417 48 14 46.3582 14 44.3333V18.6667C14 16.6417 15.6417 15 17.6667 15H43.3333C45.3582 15 47 16.6417 47 18.6667V44.3333C47 46.3582 45.3582 48 43.3333 48Z" fill="#373F51"/>
<path fill-rule="evenodd" clip-rule="evenodd" d="M39.9023 40.6667H34.0017L21.1766 22.3333H27.0772L39.9023 40.6667ZM34.7048 39.112H37.0542L26.3741 23.888H24.0247L34.7048 39.112Z" fill="#FFFDFD"/>
<path fill-rule="evenodd" clip-rule="evenodd" d="M23.0438 40.6667L29.6466 33.018L28.7831 31.8731L21.1711 40.6667H23.0438Z" fill="#FFFDFD"/>
<path fill-rule="evenodd" clip-rule="evenodd" d="M30.9125 29.4109L31.7421 30.5925L38.8747 22.3333H37.0413L30.9125 29.4109Z" fill="#FFFDFD"/>
</svg>
