<svg width="25" height="25" viewBox="0 0 25 25" fill="none" xmlns="http://www.w3.org/2000/svg">
<mask id="mask0_1185_2259" style="mask-type:alpha" maskUnits="userSpaceOnUse" x="0" y="0" width="25" height="25">
<rect x="0.135742" y="0.207153" width="24" height="24" fill="#D9D9D9"/>
</mask>
<g mask="url(#mask0_1185_2259)">
<path d="M12.1358 10.9822L8.23579 14.8822C8.05246 15.0655 7.81912 15.1572 7.53579 15.1572C7.25246 15.1572 7.01912 15.0655 6.83579 14.8822C6.65246 14.6988 6.56079 14.4655 6.56079 14.1822C6.56079 13.8988 6.65246 13.6655 6.83579 13.4822L11.4358 8.88218C11.5358 8.78218 11.6441 8.71134 11.7608 8.66968C11.8775 8.62801 12.0025 8.60718 12.1358 8.60718C12.2691 8.60718 12.3941 8.62801 12.5108 8.66968C12.6275 8.71134 12.7358 8.78218 12.8358 8.88218L17.4358 13.4822C17.6191 13.6655 17.7108 13.8988 17.7108 14.1822C17.7108 14.4655 17.6191 14.6988 17.4358 14.8822C17.2525 15.0655 17.0191 15.1572 16.7358 15.1572C16.4525 15.1572 16.2191 15.0655 16.0358 14.8822L12.1358 10.9822Z" fill="#1C1B1F"/>
</g>
</svg>
