<svg width="60" height="60" viewBox="0 0 60 60" fill="none" xmlns="http://www.w3.org/2000/svg">
<circle cx="30" cy="30" r="30" fill="#57D063"/>
<path d="M39.9204 20.0857C37.288 17.4525 33.7878 16.0016 30.0586 16C22.3739 16 16.1201 22.2495 16.117 29.9311C16.1162 32.3865 16.758 34.7834 17.9779 36.8962L16 44.1154L23.3906 42.1782C25.4268 43.2883 27.7195 43.8733 30.0526 43.8742H30.0586C37.742 43.8742 43.9967 37.6236 44 29.9424C44.0013 26.2195 42.5524 22.7191 39.9204 20.0857ZM30.0586 41.5212H30.0541C27.9744 41.5201 25.9351 40.962 24.1563 39.9068L23.733 39.656L19.3473 40.8054L20.5182 36.5325L20.2424 36.0944C19.0824 34.2506 18.47 32.1199 18.4708 29.932C18.4734 23.5473 23.6713 18.3531 30.063 18.3531C33.1582 18.3544 36.0673 19.5604 38.2552 21.7491C40.443 23.9377 41.6469 26.8471 41.646 29.9414C41.6433 36.3263 36.4452 41.5212 30.0586 41.5212Z" fill="#E0E0E0"/>
<path d="M16.64 43.1793L18.5258 36.3245C17.3624 34.3184 16.7506 32.0423 16.7513 29.7113C16.7543 22.4177 22.7171 16.4839 30.0434 16.4839C33.5992 16.4855 36.9365 17.8631 39.4458 20.3634C41.9556 22.8637 43.3369 26.1872 43.3354 29.7217C43.3324 37.0155 37.3693 42.9498 30.0439 42.9498C30.0434 42.9498 30.0443 42.9498 30.0439 42.9498H30.038C27.8135 42.9491 25.6277 42.3932 23.6864 41.3399L16.64 43.1793Z" fill="url(#paint0_linear_3513_17834)"/>
<path fill-rule="evenodd" clip-rule="evenodd" d="M26.6135 24.0167C26.3556 23.4434 26.084 23.4319 25.8386 23.4219C25.6379 23.4133 25.4081 23.4138 25.1787 23.4138C24.9491 23.4138 24.576 23.5001 24.2605 23.8445C23.9448 24.189 23.0552 25.0217 23.0552 26.7152C23.0552 28.4089 24.2892 30.0454 24.4612 30.2753C24.6334 30.5048 26.8434 34.0913 30.3435 35.471C33.2523 36.6177 33.8443 36.3896 34.4756 36.3322C35.107 36.2748 36.5129 35.4997 36.7999 34.6959C37.0869 33.8922 37.0869 33.2034 37.0008 33.0594C36.9147 32.9159 36.6851 32.8298 36.3407 32.6577C35.9963 32.4856 34.3034 31.6527 33.9878 31.538C33.6721 31.4232 33.4425 31.3658 33.2129 31.7105C32.9833 32.0547 32.3237 32.8298 32.1228 33.0594C31.9219 33.2894 31.721 33.3181 31.3767 33.146C31.0323 32.9733 29.9232 32.6102 28.6075 31.4375C27.5839 30.5252 26.8928 29.3985 26.6919 29.0538C26.491 28.7096 26.6703 28.5231 26.8431 28.3515C26.9977 28.1973 27.1875 27.9497 27.3597 27.7487C27.5315 27.5477 27.5889 27.4042 27.7037 27.1747C27.8185 26.9448 27.7611 26.7438 27.675 26.5717C27.5889 26.3996 26.9197 24.6973 26.6135 24.0167Z" fill="white"/>
<path d="M39.8886 20.0389C37.2774 17.4376 33.8054 16.0042 30.1062 16.0026C22.4833 16.0026 16.2799 22.1764 16.2768 29.7648C16.2759 32.1905 16.9125 34.5583 18.1226 36.6455L16.1607 43.7772L23.4918 41.8635C25.5117 42.9601 27.7859 43.538 30.1002 43.5389H30.1062C37.7277 43.5389 43.9321 37.3641 43.9353 29.7759C43.9366 26.0983 42.4994 22.6403 39.8886 20.0389ZM30.1062 41.2145H30.1017C28.0388 41.2134 26.0158 40.662 24.2514 39.6197L23.8314 39.3719L19.481 40.5074L20.6425 36.2863L20.3689 35.8535C19.2182 34.0321 18.6108 31.9271 18.6117 29.7658C18.6142 23.4585 23.7702 18.3272 30.1105 18.3272C33.1808 18.3285 36.0664 19.5199 38.2368 21.682C40.407 23.8441 41.6012 26.7183 41.6003 29.7751C41.5976 36.0825 36.4413 41.2145 30.1062 41.2145Z" fill="white"/>
<defs>
<linearGradient id="paint0_linear_3513_17834" x1="30" y1="44.1154" x2="30" y2="16" gradientUnits="userSpaceOnUse">
<stop stop-color="#20B038"/>
<stop offset="1" stop-color="#60D66A"/>
</linearGradient>
</defs>
</svg>
