<svg width="44" height="33" viewBox="0 0 44 33" fill="none" xmlns="http://www.w3.org/2000/svg">
<path d="M43.012 26.5695C42.573 28.8095 40.708 30.5165 38.404 30.8365C34.783 31.3695 28.748 32.0095 21.945 32.0095C15.252 32.0095 9.217 31.3695 5.486 30.8365C3.182 30.5165 1.316 28.8095 0.878 26.5695C0.439 24.1165 0 20.4895 0 16.0095C0 11.5295 0.439 7.90252 0.878 5.44952C1.317 3.20952 3.182 1.50252 5.486 1.18252C9.107 0.649522 15.142 0.00952148 21.945 0.00952148C28.748 0.00952148 34.673 0.649522 38.404 1.18252C40.708 1.50252 42.574 3.20952 43.012 5.44952C43.451 7.90252 44 11.5295 44 16.0095C43.89 20.4895 43.451 24.1165 43.012 26.5695Z" fill="url(#paint0_linear_603_3309)"/>
<path d="M30.352 14.4495L18.916 6.82552C18.339 6.44052 17.602 6.40452 16.991 6.73252C16.38 7.05952 16 7.69252 16 8.38552V23.6335C16 24.3265 16.38 24.9605 16.991 25.2875C17.269 25.4365 17.572 25.5095 17.875 25.5095C18.239 25.5095 18.601 25.4035 18.915 25.1945L30.351 17.5705C30.874 17.2215 31.186 16.6385 31.186 16.0105C31.187 15.3815 30.874 14.7985 30.352 14.4495Z" fill="#373F51"/>
<path d="M18.681 7.24652L29.471 14.4405C30.16 14.9355 30.624 15.3785 30.624 15.9535C30.624 16.5285 30.4 16.9295 29.909 17.2875C29.538 17.5575 18.864 24.6515 18.864 24.6515C17.963 25.2555 16.5 25.1275 16.5 23.1525V8.75352C16.5 6.74852 18.084 6.84852 18.681 7.24652Z" fill="#373F51"/>
<path d="M17 23.5775V8.44252C17 7.69952 17.828 7.25552 18.447 7.66852L29.799 15.2365C30.352 15.6045 30.352 16.4165 29.799 16.7855L18.447 24.3535C17.828 24.7645 17 24.3215 17 23.5775Z" fill="#FFFDFD"/>
<defs>
<linearGradient id="paint0_linear_603_3309" x1="7.816" y1="1.88052" x2="39.246" y2="33.3105" gradientUnits="userSpaceOnUse">
<stop stop-color="#F44F5A"/>
<stop offset="0.443" stop-color="#EE3D4A"/>
<stop offset="1" stop-color="#E52030"/>
</linearGradient>
</defs>
</svg>
