<?xml version="1.0" standalone="no"?>
<!DOCTYPE svg PUBLIC "-//W3C//DTD SVG 20010904//EN"
 "http://www.w3.org/TR/2001/REC-SVG-20010904/DTD/svg10.dtd">
<svg version="1.0" xmlns="http://www.w3.org/2000/svg"
 width="700.000000pt" height="700.000000pt" viewBox="0 0 700.000000 700.000000"
 preserveAspectRatio="xMidYMid meet">
<metadata>
Created by potrace 1.14, written by Peter Selinger 2001-2017
</metadata>
<g transform="translate(0.000000,700.000000) scale(0.100000,-0.100000)"
fill="#000000" stroke="none">
<path d="M3278 6995 c-1 -1 -41 -6 -87 -9 -124 -10 -164 -16 -351 -50 -90 -16
-200 -42 -300 -71 -131 -38 -370 -122 -385 -136 -5 -5 -14 -9 -21 -9 -21 0
-263 -120 -389 -193 -103 -60 -265 -165 -315 -204 -8 -6 -51 -40 -95 -74 -650
-506 -1121 -1279 -1270 -2084 -10 -49 -18 -97 -20 -105 -2 -9 -6 -43 -10 -75
-4 -33 -9 -69 -11 -80 -25 -135 -25 -674 0 -813 2 -9 7 -43 11 -76 27 -225
134 -634 210 -801 7 -16 23 -55 35 -85 27 -68 138 -290 192 -385 98 -169 316
-471 412 -571 257 -265 325 -328 506 -465 47 -35 87 -67 88 -71 2 -5 8 -8 13
-8 6 0 38 -19 73 -42 73 -51 79 -54 176 -111 73 -44 353 -187 365 -187 3 0 24
-8 48 -19 217 -96 616 -207 857 -236 30 -4 66 -9 80 -11 185 -26 657 -25 840
2 606 90 1054 259 1535 580 96 64 298 219 354 272 362 342 581 621 780 997
136 256 271 633 327 909 20 99 46 274 57 381 14 128 16 574 3 660 -3 22 -10
78 -16 125 -5 47 -12 94 -14 105 -2 11 -11 61 -21 110 -144 769 -580 1512
-1180 2010 -33 28 -62 52 -65 55 -28 31 -258 191 -384 268 -344 209 -846 397
-1196 448 -19 3 -60 9 -91 15 -31 5 -81 12 -110 15 -30 3 -67 8 -84 10 -34 6
-542 14 -547 9z m471 -279 c111 -6 148 -10 221 -22 19 -3 50 -8 67 -10 64 -8
249 -46 323 -66 165 -44 299 -147 363 -277 29 -59 32 -75 32 -157 0 -77 -4
-98 -25 -140 -32 -63 -104 -136 -167 -167 -125 -64 -241 -68 -468 -19 -77 17
-162 33 -190 37 -27 3 -63 8 -80 10 -185 25 -504 21 -686 -9 -19 -3 -50 -8
-69 -11 -19 -2 -44 -7 -55 -9 -87 -19 -173 -38 -190 -42 -154 -38 -348 10
-445 110 -141 146 -140 334 3 500 60 70 155 131 247 160 65 21 271 66 365 80
121 18 169 23 315 32 63 3 116 7 117 8 4 3 217 -2 322 -8z m-76 -1061 c48 -3
95 -8 105 -9 9 -2 39 -7 65 -10 335 -49 713 -215 992 -435 287 -227 514 -523
655 -856 49 -117 71 -182 106 -310 7 -26 43 -215 48 -250 42 -320 12 -656 -85
-950 -211 -641 -682 -1129 -1324 -1370 -160 -60 -430 -115 -615 -125 -123 -7
-330 1 -415 15 -299 52 -515 122 -725 237 -41 23 -84 46 -95 52 -11 6 -54 34
-96 63 -546 371 -892 966 -946 1623 -9 108 -8 251 1 360 7 85 52 345 62 362 3
4 14 40 25 78 10 38 37 116 60 172 163 412 445 756 827 1011 200 133 519 265
731 302 19 3 37 7 40 9 3 2 30 7 60 11 30 4 63 8 73 10 11 2 63 7 116 11 53 3
98 7 99 8 4 4 141 -2 236 -9z"/>
<path d="M4250 6494 c-80 -29 -147 -89 -182 -164 -31 -65 -30 -188 0 -251 29
-59 88 -119 149 -150 67 -34 186 -34 256 0 61 30 118 87 148 148 31 64 35 168
8 238 -23 63 -89 134 -151 164 -63 30 -167 37 -228 15z"/>
</g>
</svg>
